<svg width="24" height="24" viewBox="0 0 24 24" fill="none" xmlns="http://www.w3.org/2000/svg">
<mask id="mask0_2_218" style="mask-type:luminance" maskUnits="userSpaceOnUse" x="0" y="0" width="24" height="24">
<path d="M23.971 0H0V24H23.971V0Z" fill="grey"/>
</mask>
<g mask="url(#mask0_2_218)">
<path d="M23.4 0.6C22.9181 0.247423 22.3458 0.0393126 21.75 0C21.0749 0.00569458 20.4093 0.159299 19.8 0.45C19.1686 0.743238 18.566 1.09476 18 1.5C17.4958 1.77419 17.0398 2.12886 16.65 2.55C15.9434 3.09288 15.3347 3.75234 14.85 4.5L5.1 1.65C4.8 1.65 4.65 1.5 4.2 1.65C3.92187 1.65566 3.6553 1.76229 3.45 1.95L2.4 3.15C2.1 3.3 2.1 3.45 2.1 3.75C2.1 4.05 2.25 4.2 2.55 4.35L10.65 9.6C10.5 9.9 9.6 10.8 8.25 12.45L3.3 11.7C3.03224 11.6581 2.75849 11.6768 2.4989 11.7547C2.23932 11.8326 2.00049 11.9676 1.8 12.15L0.149997 13.95C0.0930612 14.0091 0.0500463 14.0802 0.0240947 14.158C-0.00185696 14.2359 -0.0100899 14.3186 -2.73576e-06 14.4C-2.73576e-06 14.55 0.149997 14.7 0.449997 14.85L6.15 16.8C6.40191 16.8672 6.63164 16.9997 6.81599 17.184C7.00035 17.3684 7.13281 17.5981 7.2 17.85L9.15 23.55C9.3 23.85 9.45 24 9.6 24C9.68144 24.0101 9.76411 24.0019 9.84196 23.9759C9.91982 23.95 9.99089 23.9069 10.05 23.85L11.7 22.2C11.9118 22.0201 12.0671 21.7828 12.1469 21.5166C12.2268 21.2504 12.2278 20.9668 12.15 20.7L11.4 15.75C11.55 15.6 12.45 14.85 14.25 13.5L19.5 21.6C19.6709 21.7853 19.8743 21.9378 20.1 22.05C20.4 22.05 20.55 22.05 20.7 21.9L21.9 20.7C22.0877 20.4947 22.1943 20.2281 22.2 19.95V19.05L19.5 9.15C20.2452 8.60488 20.9473 8.00309 21.6 7.35C22.1537 6.77829 22.6098 6.11952 22.95 5.4C23.4044 4.61264 23.7095 3.74815 23.85 2.85C23.9732 2.46772 23.9965 2.06029 23.9177 1.66646C23.8389 1.27263 23.6607 0.905501 23.4 0.6Z" fill="#AAB5E0"/>
</g>
</svg>
