<svg width="16" height="16" viewBox="0 0 16 16" fill="none" xmlns="http://www.w3.org/2000/svg">
<g opacity="0.5">
<path fill-rule="evenodd" clip-rule="evenodd" d="M14.721 2.27496C14.321 1.86996 13.8446 1.54841 13.3194 1.32894C12.7942 1.10947 12.2307 0.99646 11.6615 0.99646C11.0923 0.99646 10.5287 1.10947 10.0035 1.32894C9.47834 1.54841 9.00194 1.86996 8.60198 2.27496L8.00198 2.87496L7.40198 2.27496C6.59002 1.46247 5.48855 1.00581 4.33989 1.00543C3.19123 1.00506 2.08947 1.461 1.27698 2.27296C0.464485 3.08492 0.0078216 4.18639 0.00744652 5.33505C0.00707144 6.48371 0.463015 7.58547 1.27498 8.39796L7.99598 15.119L14.717 8.39796C15.122 7.99799 15.4435 7.5216 15.663 6.9964C15.8825 6.47121 15.9955 5.90767 15.9955 5.33846C15.9955 4.76925 15.8825 4.20571 15.663 3.68052C15.4435 3.15532 15.122 2.67893 14.717 2.27896" fill="white"/>
</g>
</svg>
