<svg width="36" height="36" viewBox="0 0 36 36" fill="none" xmlns="http://www.w3.org/2000/svg">
<mask id="mask0_2_237" style="mask-type:luminance" maskUnits="userSpaceOnUse" x="0" y="0" width="36" height="36">
<path d="M36 0H0V36H36V0Z" fill="white"/>
</mask>
<g mask="url(#mask0_2_237)">
<path d="M18 36C27.9411 36 36 27.9411 36 18C36 8.05887 27.9411 0 18 0C8.05887 0 0 8.05887 0 18C0 27.9411 8.05887 36 18 36Z" fill="#FFEBEE"/>
<path fill-rule="evenodd" clip-rule="evenodd" d="M25.561 11.439C25.1111 10.9832 24.5752 10.6213 23.9843 10.3742C23.3935 10.1272 22.7594 10 22.119 10C21.4786 10 20.8445 10.1272 20.2536 10.3742C19.6628 10.6213 19.1269 10.9832 18.677 11.439L18 12.116L17.323 11.439C16.4068 10.5422 15.1738 10.043 13.8918 10.0498C12.6097 10.0566 11.3821 10.569 10.4755 11.4755C9.56895 12.3821 9.05662 13.6097 9.04978 14.8918C9.04294 16.1738 9.54215 17.4068 10.439 18.323L18 25.884L25.561 18.323C26.0168 17.8731 26.3787 17.3372 26.6258 16.7464C26.8728 16.1555 27 15.5214 27 14.881C27 14.2406 26.8728 13.6065 26.6258 13.0157C26.3787 12.4248 26.0168 11.8889 25.561 11.439Z" fill="#F44336"/>
</g>
</svg>
