<svg width="36" height="36" viewBox="0 0 36 36" fill="none" xmlns="http://www.w3.org/2000/svg">
<mask id="mask0_2_231" style="mask-type:luminance" maskUnits="userSpaceOnUse" x="0" y="0" width="36" height="36">
<path d="M36 0H0V36H36V0Z" fill="white"/>
</mask>
<g mask="url(#mask0_2_231)">
<path d="M18 0C21.5601 0 25.0402 1.05568 28.0003 3.03355C30.9604 5.01141 33.2675 7.82263 34.6298 11.1117C35.9922 14.4008 36.3487 18.02 35.6541 21.5116C34.9596 25.0033 33.2453 28.2106 30.7279 30.7279C28.2106 33.2453 25.0033 34.9596 21.5116 35.6541C18.02 36.3487 14.4008 35.9922 11.1117 34.6298C7.82263 33.2675 5.01141 30.9604 3.03355 28.0003C1.05568 25.0402 0 21.5601 0 18C0 13.2261 1.89642 8.64773 5.27208 5.27208C8.64773 1.89642 13.2261 0 18 0Z" fill="url(#paint0_linear_2_231)"/>
<path fill-rule="evenodd" clip-rule="evenodd" d="M24 14H12L18 19L24 14ZM10 14C10.0016 13.4701 10.2128 12.9623 10.5875 12.5875C10.9623 12.2128 11.4701 12.0016 12 12H24C24.5299 12.0016 25.0377 12.2128 25.4125 12.5875C25.7872 12.9623 25.9984 13.4701 26 14V22C25.9984 22.5299 25.7872 23.0377 25.4125 23.4125C25.0377 23.7872 24.5299 23.9984 24 24H12C11.4701 23.9984 10.9623 23.7872 10.5875 23.4125C10.2128 23.0377 10.0016 22.5299 10 22V14Z" fill="white"/>
</g>
<defs>
<linearGradient id="paint0_linear_2_231" x1="28.296" y1="4.32" x2="9.54" y2="27.54" gradientUnits="userSpaceOnUse">
<stop stop-color="#7B1FA2"/>
<stop offset="1" stop-color="#7B1FA2"/>
</linearGradient>
</defs>
</svg>
