<svg width="36" height="36" viewBox="0 0 36 36" fill="none" xmlns="http://www.w3.org/2000/svg">
<mask id="mask0_2_223" style="mask-type:luminance" maskUnits="userSpaceOnUse" x="0" y="0" width="36" height="36">
<path d="M36 0H0V36H36V0Z" fill="white"/>
</mask>
<g mask="url(#mask0_2_223)">
<path d="M18 0C21.5601 0 25.0402 1.05568 28.0003 3.03355C30.9604 5.01141 33.2675 7.82263 34.6298 11.1117C35.9922 14.4008 36.3487 18.02 35.6541 21.5116C34.9596 25.0033 33.2453 28.2106 30.7279 30.7279C28.2106 33.2453 25.0033 34.9596 21.5116 35.6541C18.02 36.3487 14.4008 35.9922 11.1117 34.6298C7.82263 33.2675 5.01141 30.9604 3.03355 28.0003C1.05568 25.0402 0 21.5601 0 18C0 13.2261 1.89642 8.64773 5.27208 5.27208C8.64773 1.89642 13.2261 0 18 0Z" fill="url(#paint0_linear_2_223)"/>
<path d="M18.154 13.077L12.462 18.923L10 26L17.077 23.692L22.769 18L18.154 13.077ZM25.385 12.615L23.385 10.615C23.2101 10.4212 22.9966 10.2663 22.7581 10.1603C22.5196 10.0543 22.2615 9.99951 22.0005 9.99951C21.7395 9.99951 21.4814 10.0543 21.2429 10.1603C21.0044 10.2663 20.7909 10.4212 20.616 10.615L18.923 12.308L23.538 17.077L25.384 15.231C25.5739 15.0529 25.7263 14.8386 25.8321 14.6008C25.9379 14.3629 25.995 14.1062 26 13.846C25.956 13.3732 25.7366 12.934 25.385 12.615Z" fill="white"/>
</g>
<defs>
<linearGradient id="paint0_linear_2_223" x1="28.296" y1="4.32" x2="9.54" y2="27.54" gradientUnits="userSpaceOnUse">
<stop stop-color="#7B1FA2"/>
<stop offset="1" stop-color="#7B1FA2"/>
</linearGradient>
</defs>
</svg>
