<svg width="36" height="36" viewBox="0 0 36 36" fill="none" xmlns="http://www.w3.org/2000/svg">
<mask id="mask0_2_244" style="mask-type:luminance" maskUnits="userSpaceOnUse" x="0" y="0" width="36" height="36">
<path d="M36 0H0V36H36V0Z" fill="white"/>
</mask>
<g mask="url(#mask0_2_244)">
<path d="M18 0C21.5601 0 25.0402 1.05568 28.0003 3.03355C30.9604 5.01141 33.2675 7.82263 34.6298 11.1117C35.9922 14.4008 36.3487 18.02 35.6541 21.5116C34.9596 25.0033 33.2453 28.2106 30.7279 30.7279C28.2106 33.2453 25.0033 34.9596 21.5116 35.6541C18.02 36.3487 14.4008 35.9922 11.1117 34.6298C7.82263 33.2675 5.01141 30.9604 3.03355 28.0003C1.05568 25.0402 0 21.5601 0 18C0 13.2261 1.89642 8.64773 5.27208 5.27208C8.64773 1.89642 13.2261 0 18 0Z" fill="url(#paint0_linear_2_244)"/>
<path d="M18 10L20.5 15L26 15.8L22 19.7L22.9 25.2L18 22.6L13.1 25.2L14 19.7L10 15.8L15.5 15L18 10Z" fill="white"/>
</g>
<defs>
<linearGradient id="paint0_linear_2_244" x1="28.296" y1="4.32" x2="9.54" y2="27.54" gradientUnits="userSpaceOnUse">
<stop stop-color="#7B1FA2"/>
<stop offset="1" stop-color="#7B1FA2"/>
</linearGradient>
</defs>
</svg>
