<svg width="64" height="64" viewBox="0 0 64 64" fill="none" xmlns="http://www.w3.org/2000/svg">
<mask id="mask0_2_286" style="mask-type:luminance" maskUnits="userSpaceOnUse" x="0" y="0" width="64" height="64">
<path d="M64 0H0V64H64V0Z" fill="white"/>
</mask>
<g mask="url(#mask0_2_286)">
<path d="M32 64C49.6731 64 64 49.6731 64 32C64 14.3269 49.6731 0 32 0C14.3269 0 0 14.3269 0 32C0 49.6731 14.3269 64 32 64Z" fill="url(#paint0_linear_2_286)"/>
<path d="M42.34 18.305C42.1967 18.3054 42.0557 18.2685 41.931 18.198C38.8978 16.5342 35.4905 15.6713 32.031 15.691C28.5715 15.6713 25.1642 16.5341 22.131 18.198C21.9235 18.3112 21.6795 18.3374 21.4526 18.2707C21.2258 18.2041 21.0348 18.05 20.9215 17.8425C20.8083 17.6349 20.7821 17.3909 20.8488 17.1641C20.9154 16.9373 21.0695 16.7462 21.277 16.633C24.5744 14.8515 28.2626 13.917 32.0105 13.9135C35.7583 13.91 39.4483 14.8376 42.749 16.613C42.9225 16.708 43.0599 16.8576 43.1398 17.0386C43.2198 17.2196 43.2379 17.4218 43.1913 17.6141C43.1447 17.8064 43.0361 17.978 42.8822 18.1023C42.7283 18.2267 42.5378 18.2968 42.34 18.302V18.305ZM16.895 27.64C16.7109 27.6391 16.5313 27.5834 16.379 27.48C16.2826 27.4128 16.2005 27.327 16.1376 27.2278C16.0746 27.1286 16.0319 27.0179 16.0121 26.902C15.9923 26.7862 15.9957 26.6676 16.0221 26.5531C16.0485 26.4385 16.0974 26.3304 16.166 26.235C17.8823 23.7831 20.1712 21.7873 22.834 20.421C25.6792 18.9975 28.8164 18.2549 31.9979 18.2517C35.1793 18.2486 38.318 18.9851 41.166 20.403C43.8233 21.7618 46.1114 23.7448 47.834 26.182C47.9656 26.3755 48.016 26.6129 47.9743 26.8432C47.9326 27.0734 47.8022 27.2781 47.6111 27.4132C47.4201 27.5483 47.1836 27.6031 46.9526 27.5656C46.7217 27.5282 46.5146 27.4015 46.376 27.213C44.8188 25.0086 42.7504 23.2147 40.348 21.985C37.7506 20.694 34.8889 20.0237 31.9884 20.0268C29.0878 20.0299 26.2276 20.7064 23.633 22.003C21.2241 23.2461 19.1502 25.0513 17.587 27.266C17.5153 27.3844 17.4132 27.4814 17.2914 27.547C17.1695 27.6126 17.0323 27.6443 16.894 27.639L16.895 27.64ZM28.003 49.102C27.8864 49.1034 27.7708 49.0804 27.6637 49.0344C27.5566 48.9884 27.4603 48.9205 27.381 48.835C25.9393 47.4778 24.7317 45.8918 23.807 44.141C22.5373 41.7697 21.8946 39.1134 21.94 36.424C22.0092 33.8203 23.107 31.3501 24.9931 29.554C26.8792 27.7578 29.4001 26.7819 32.004 26.84C34.6088 26.7806 37.1309 27.7558 39.0182 29.5522C40.9054 31.3485 42.0038 33.8195 42.073 36.424C42.073 36.6598 41.9793 36.8859 41.8126 37.0526C41.6459 37.2193 41.4198 37.313 41.184 37.313C40.9482 37.313 40.7221 37.2193 40.5554 37.0526C40.3887 36.8859 40.295 36.6598 40.295 36.424C40.2271 34.2915 39.317 32.2728 37.764 30.8098C36.2111 29.3468 34.1417 28.5587 32.009 28.618C29.8763 28.5587 27.8069 29.3468 26.254 30.8098C24.701 32.2728 23.791 34.2915 23.723 36.424C23.6788 38.81 24.2484 41.1673 25.377 43.27C26.2344 44.8715 27.3455 46.3236 28.667 47.57C28.8295 47.7399 28.9202 47.9659 28.9202 48.201C28.9202 48.4361 28.8295 48.6621 28.667 48.832C28.488 49.003 28.2506 49.0996 28.003 49.102ZM40.757 45.813C38.8011 45.8608 36.8775 45.3083 35.245 44.23C33.9552 43.374 32.8949 42.2148 32.1571 40.8539C31.4193 39.493 31.0264 37.972 31.013 36.424C31.013 36.1882 31.1067 35.9621 31.2734 35.7954C31.4401 35.6286 31.6662 35.535 31.902 35.535C32.1378 35.535 32.3639 35.6286 32.5306 35.7954C32.6973 35.9621 32.791 36.1882 32.791 36.424C32.8014 37.6814 33.1216 38.9169 33.7234 40.021C34.3252 41.1251 35.1899 42.0638 36.241 42.754C37.5816 43.6268 39.1582 44.0663 40.757 44.013C41.3771 44.0025 41.9953 43.943 42.606 43.835C42.8364 43.8019 43.0707 43.8601 43.2588 43.9972C43.4469 44.1343 43.5741 44.3394 43.6132 44.5689C43.6523 44.7983 43.6003 45.034 43.4682 45.2257C43.3361 45.4173 43.1344 45.5499 42.906 45.595C42.1964 45.7298 41.4762 45.8011 40.754 45.808L40.757 45.813ZM37.183 49.476C37.1049 49.4727 37.0274 49.4606 36.952 49.44C34.4426 48.8349 32.1517 47.5418 30.337 45.706C29.1087 44.4933 28.1347 43.0477 27.472 41.4539C26.8094 39.8601 26.4715 38.1501 26.478 36.424C26.5131 35.0051 27.1094 33.6581 28.1361 32.6781C29.1627 31.6981 30.536 31.1651 31.955 31.196C33.374 31.1651 34.7473 31.6981 35.774 32.6781C36.8006 33.6581 37.3969 35.0051 37.432 36.424C37.4938 37.3632 37.9105 38.2438 38.5976 38.8872C39.2847 39.5306 40.1907 39.8885 41.132 39.8885C42.0733 39.8885 42.9793 39.5306 43.6664 38.8872C44.3535 38.2438 44.7702 37.3632 44.832 36.424C44.832 29.724 39.053 24.279 31.94 24.279C29.5057 24.2509 27.1125 24.9079 25.0337 26.175C22.9549 27.4422 21.2744 29.2683 20.184 31.445C19.465 33.0048 19.1064 34.7066 19.135 36.424C19.1299 38.619 19.5337 40.7959 20.326 42.843C20.369 42.9514 20.3898 43.0673 20.387 43.1839C20.3842 43.3005 20.3579 43.4154 20.3097 43.5216C20.2616 43.6278 20.1925 43.7232 20.1066 43.8022C20.0208 43.8811 19.9199 43.9419 19.81 43.981C19.7014 44.022 19.5858 44.0412 19.4698 44.0375C19.3537 44.0338 19.2396 44.0072 19.1339 43.9593C19.0281 43.9113 18.9329 43.843 18.8537 43.7582C18.7744 43.6733 18.7127 43.5737 18.672 43.465C17.8146 41.2164 17.3741 38.8305 17.372 36.424C17.3426 34.4374 17.7566 32.4693 18.584 30.663C19.8183 28.184 21.7251 26.1024 24.0866 24.656C26.4481 23.2097 29.1689 22.457 31.938 22.484C40.029 22.484 46.608 28.725 46.608 36.407C46.5395 37.8133 45.9326 39.1393 44.913 40.1104C43.8935 41.0814 42.5395 41.6231 41.1315 41.6231C39.7235 41.6231 38.3695 41.0814 37.35 40.1104C36.3305 39.1393 35.7235 37.8133 35.655 36.407C35.6209 35.4592 35.2121 34.5636 34.5184 33.9168C33.8248 33.27 32.9029 32.9248 31.955 32.957C31.0071 32.9248 30.0852 33.27 29.3916 33.9168C28.6979 34.5636 28.2892 35.4592 28.255 36.407C28.2477 37.8976 28.538 39.3747 29.109 40.7517C29.6799 42.1287 30.52 43.3779 31.58 44.426C33.1709 46.047 35.1861 47.1872 37.395 47.716C37.5072 47.7462 37.6123 47.7983 37.7043 47.8692C37.7963 47.9402 37.8734 48.0286 37.9312 48.1294C37.989 48.2302 38.0263 48.3414 38.041 48.4566C38.0558 48.5719 38.0476 48.6889 38.017 48.801C37.9739 48.9912 37.8679 49.1614 37.7163 49.284C37.5646 49.4066 37.376 49.4746 37.181 49.477L37.183 49.476Z" fill="white"/>
</g>
<defs>
<linearGradient id="paint0_linear_2_286" x1="32" y1="0" x2="32" y2="0" gradientUnits="userSpaceOnUse">
<stop stop-color="#7B1FA2"/>
<stop offset="1" stop-color="#4527A0"/>
</linearGradient>
</defs>
</svg>
