<svg width="16" height="16" viewBox="0 0 16 16" fill="none" xmlns="http://www.w3.org/2000/svg">
<mask id="mask0_2_183" style="mask-type:luminance" maskUnits="userSpaceOnUse" x="0" y="0" width="16" height="16">
<path d="M16 0H0V16H16V0Z" fill="white"/>
</mask>
<g mask="url(#mask0_2_183)">
<path d="M4.267 14.733C4.23905 15.0163 4.1478 15.2897 4 15.533C3.733 15.8 3.6 15.8 3.2 15.8H1.067C0.783695 15.7721 0.510293 15.6808 0.266996 15.533C-3.9041e-06 15.4 -3.89307e-06 15 -3.89307e-06 14.733V8.6C-0.00488396 8.42479 0.0283584 8.25062 0.0974232 8.08952C0.166488 7.92843 0.269727 7.78427 0.399996 7.667L1.2 7.267C3.33094 6.47787 5.59621 6.11533 7.867 6.2C10.2251 6.10741 12.5789 6.46967 14.8 7.267C15.067 7.4 15.2 7.534 15.467 7.667C15.6349 7.75633 15.774 7.89136 15.8683 8.05647C15.9627 8.22158 16.0083 8.41003 16 8.6V14.733C15.9721 15.0163 15.8808 15.2897 15.733 15.533C15.6 15.8 15.333 15.8 14.933 15.8H12.8C12.5167 15.7721 12.2433 15.6808 12 15.533C11.733 15.4 11.733 15.133 11.733 14.733V13.667H4.267V14.733ZM4.667 3.933C3.93655 3.92406 3.21158 4.06002 2.534 4.333C1.867 4.733 1.334 5 1.067 5.533V3.133C1.04722 2.97506 1.07466 2.8148 1.14585 2.67242C1.21703 2.53005 1.32878 2.41195 1.467 2.333C2.8 1.4 4.933 1 8 1H9.867C10.6815 1.02364 11.4889 1.15821 12.267 1.4C13.0701 1.58008 13.8368 1.89559 14.534 2.333C14.6506 2.43295 14.7461 2.55521 14.8148 2.69259C14.8835 2.82998 14.924 2.97972 14.934 3.133V5.533C14.557 5.04442 14.0479 4.67413 13.467 4.466C12.7894 4.19302 12.0644 4.05706 11.334 4.066C10.6894 4.05632 10.051 4.19309 9.467 4.466C8.93543 4.57936 8.43486 4.80695 8 5.133C7.54356 4.81053 7.05127 4.54207 6.533 4.333C5.94926 4.06024 5.31125 3.92347 4.667 3.933Z" fill="#8B8B8B"/>
</g>
</svg>
