<svg width="16" height="16" viewBox="0 0 16 16" fill="none" xmlns="http://www.w3.org/2000/svg">
<mask id="mask0_2_189" style="mask-type:luminance" maskUnits="userSpaceOnUse" x="0" y="0" width="16" height="16">
<path d="M16 0H0V16H16V0Z" fill="white"/>
</mask>
<g mask="url(#mask0_2_189)">
<path d="M2.39999 2.40002C3.10393 1.6183 3.96927 0.998828 4.93617 0.584442C5.90307 0.170057 6.94845 -0.0293468 7.99999 2.40959e-05C9.05154 -0.0293468 10.0969 0.170057 11.0638 0.584442C12.0307 0.998828 12.8961 1.6183 13.6 2.40002C14.3817 3.10396 15.0012 3.9693 15.4156 4.9362C15.83 5.9031 16.0294 6.94848 16 8.00002C16.0294 9.05157 15.83 10.0969 15.4156 11.0638C15.0012 12.0307 14.3817 12.8961 13.6 13.6C12.8961 14.3817 12.0307 15.0012 11.0638 15.4156C10.0969 15.83 9.05154 16.0294 7.99999 16C6.94845 16.0294 5.90307 15.83 4.93617 15.4156C3.96927 15.0012 3.10393 14.3817 2.39999 13.6C0.891214 12.124 0.0283128 10.1105 -6.4217e-06 8.00002C-0.0293773 6.94848 0.170026 5.9031 0.584412 4.9362C0.998797 3.9693 1.61827 3.10396 2.39999 2.40002ZM11.6 11.6L12.533 10.667L9.19999 7.33302L7.99999 2.00002H6.66699V8.00002C6.66211 8.17523 6.69536 8.34941 6.76442 8.5105C6.83349 8.67159 6.93672 8.81576 7.06699 8.93302C7.13902 9.00541 7.23283 9.05214 7.33399 9.06602L11.6 11.6Z" fill="#8B8B8B"/>
</g>
</svg>
