<svg width="20" height="16" viewBox="0 0 20 16" fill="none" xmlns="http://www.w3.org/2000/svg">
<mask id="mask0_2_161" style="mask-type:luminance" maskUnits="userSpaceOnUse" x="0" y="0" width="20" height="16">
<path d="M20 0H0V16H20V0Z" fill="white"/>
</mask>
<g mask="url(#mask0_2_161)">
<path d="M18 1.23375e-05H2.00001C1.73765 -0.000656022 1.47776 0.0506929 1.23537 0.15109C0.992974 0.251486 0.772888 0.398939 0.587835 0.584921C0.402783 0.770904 0.256435 0.991726 0.157255 1.23462C0.0580742 1.47751 0.00802889 1.73766 0.0100123 2.00001L1.23375e-05 14C-0.000912688 14.2629 0.0501873 14.5234 0.150369 14.7665C0.250551 15.0095 0.397834 15.2304 0.583736 15.4163C0.769638 15.6022 0.990484 15.7495 1.23355 15.8497C1.47662 15.9498 1.73711 16.0009 2.00001 16H18C18.2629 16.0009 18.5234 15.9498 18.7665 15.8497C19.0095 15.7495 19.2304 15.6022 19.4163 15.4163C19.6022 15.2304 19.7495 15.0095 19.8497 14.7665C19.9498 14.5234 20.0009 14.2629 20 14V2.00001C20.0009 1.73711 19.9498 1.47662 19.8497 1.23355C19.7495 0.990484 19.6022 0.769638 19.4163 0.583736C19.2304 0.397835 19.0095 0.250551 18.7665 0.150369C18.5234 0.0501873 18.2629 -0.000912688 18 1.23375e-05ZM18 14H2.00001V8.00001H18V14ZM18 4.00001H2.00001V2.00001H18V4.00001Z" fill="#8B8B8B"/>
</g>
</svg>
