<svg width="16" height="16" viewBox="0 0 16 16" fill="none" xmlns="http://www.w3.org/2000/svg">
<mask id="mask0_2_149" style="mask-type:luminance" maskUnits="userSpaceOnUse" x="0" y="0" width="16" height="16">
<path d="M16 0H0V16H16V0Z" fill="white"/>
</mask>
<g mask="url(#mask0_2_149)">
<path fill-rule="evenodd" clip-rule="evenodd" d="M1 14.316V5.895L6.053 0C6.33063 0.00364406 6.60303 0.0760418 6.84584 0.210718C7.08864 0.345395 7.29428 0.53815 7.44436 0.771746C7.59445 1.00534 7.6843 1.27249 7.70587 1.54931C7.72745 1.82612 7.68008 2.10397 7.568 2.358L6.053 5.895H12.453C12.6961 5.89573 12.9362 5.94843 13.1572 6.04956C13.3782 6.15068 13.5751 6.2979 13.7346 6.48134C13.8941 6.66478 14.0125 6.88019 14.0819 7.11314C14.1513 7.34609 14.1701 7.59119 14.137 7.832L13.042 14.569C12.9754 14.9679 12.7698 15.3305 12.4616 15.5924C12.1534 15.8543 11.7625 15.9987 11.358 16H2.684C2.23778 15.9987 1.81022 15.8208 1.49469 15.5053C1.17916 15.1898 1.00132 14.7622 1 14.316Z" fill="#8B8B8B"/>
</g>
</svg>
