<svg width="16" height="16" viewBox="0 0 16 16" fill="none" xmlns="http://www.w3.org/2000/svg">
<mask id="mask0_2_200" style="mask-type:luminance" maskUnits="userSpaceOnUse" x="0" y="0" width="16" height="16">
<path d="M16 0H0V16H16V0Z" fill="white"/>
</mask>
<g mask="url(#mask0_2_200)">
<path d="M14.562 6.61195C14.5654 8.1057 14.0512 9.55449 13.107 10.712C12.1085 11.8354 10.7548 12.5823 9.27201 12.828V15.6C9.27201 15.732 9.27201 15.732 9.14001 15.864C9.06938 15.9371 8.97658 15.9849 8.87601 16H7.55401C7.42201 16 7.42201 16 7.29001 15.868C7.27223 15.8509 7.25808 15.8304 7.24841 15.8077C7.23874 15.785 7.23376 15.7606 7.23376 15.736C7.23376 15.7113 7.23874 15.6869 7.24841 15.6642C7.25808 15.6415 7.27223 15.621 7.29001 15.604V12.826C5.8072 12.5803 4.45353 11.8334 3.45501 10.71C2.51122 9.55302 1.9971 8.10501 2.00001 6.61195C2.00465 6.36654 2.09849 6.13121 2.26401 5.94995C2.44501 5.78466 2.67994 5.69083 2.92501 5.68595C3.17008 5.69083 3.40501 5.78466 3.58601 5.94995C3.70807 6.0114 3.81034 6.10601 3.88109 6.22292C3.95184 6.33983 3.9882 6.47432 3.98601 6.61095C3.96396 7.18452 4.07114 7.7557 4.29962 8.28226C4.52811 8.80881 4.87205 9.27726 5.30601 9.65295C5.70017 10.0636 6.17194 10.3919 6.69396 10.6189C7.21598 10.8458 7.77786 10.9668 8.34701 10.975C8.92057 10.9966 9.49166 10.889 10.018 10.6602C10.5444 10.4314 11.0126 10.0871 11.388 9.65295C11.7799 9.25156 12.0871 8.77556 12.2915 8.25319C12.496 7.73081 12.5934 7.17269 12.578 6.61195C12.5798 6.4289 12.6353 6.2504 12.7376 6.09859C12.8399 5.94678 12.9845 5.82833 13.1535 5.75795C13.3225 5.68756 13.5084 5.66833 13.6882 5.70264C13.868 5.73695 14.0338 5.82329 14.165 5.95095C14.2865 6.01282 14.3882 6.1076 14.4584 6.22448C14.5286 6.34137 14.5645 6.47563 14.562 6.61195ZM5.30601 6.61195V2.91195C5.28865 2.51163 5.36296 2.11263 5.52327 1.7454C5.68358 1.37816 5.92565 1.0524 6.23101 0.792952C6.50898 0.520607 6.8408 0.309377 7.2052 0.172813C7.5696 0.0362501 7.95852 -0.0226296 8.34701 -4.77843e-05C8.74851 -0.0301672 9.15128 0.0384797 9.52013 0.199897C9.88898 0.361313 10.2127 0.61059 10.463 0.925952C10.7235 1.18487 10.9283 1.49438 11.0647 1.83542C11.201 2.17645 11.2662 2.5418 11.256 2.90895V6.60895C11.2728 7.00886 11.1981 7.40732 11.0376 7.774C10.8772 8.14068 10.6351 8.46592 10.33 8.72495C10.0711 8.98547 9.76159 9.19022 9.42055 9.3266C9.07951 9.46298 8.71417 9.5281 8.34701 9.51795C7.95852 9.54053 7.5696 9.48165 7.2052 9.34509C6.8408 9.20853 6.50898 8.9973 6.23101 8.72495C5.92647 8.46614 5.68489 8.14134 5.52461 7.77522C5.36434 7.4091 5.28958 7.01128 5.30601 6.61195Z" fill="#8E8E8E"/>
</g>
</svg>
