<svg width="34" height="34" viewBox="0 0 34 34" fill="none" xmlns="http://www.w3.org/2000/svg">
<mask id="mask0_2_211" style="mask-type:luminance" maskUnits="userSpaceOnUse" x="0" y="0" width="34" height="34">
<path d="M34 0H0V34H34V0Z" fill="white"/>
</mask>
<g mask="url(#mask0_2_211)">
<g filter="url(#filter0_d_2_211)">
<path d="M17 22C21.4183 22 25 18.4183 25 14C25 9.58172 21.4183 6 17 6C12.5817 6 9 9.58172 9 14C9 18.4183 12.5817 22 17 22Z" fill="#FF3D00"/>
</g>
<path d="M17.6183 18.1193C17.0558 18.1193 16.5543 18.0227 16.114 17.8295C15.6765 17.6364 15.3285 17.3679 15.07 17.0241C14.8143 16.6776 14.6751 16.2756 14.6524 15.8182H15.7262C15.7489 16.0994 15.8455 16.3423 16.016 16.5469C16.1864 16.7486 16.4095 16.9048 16.685 17.0156C16.9606 17.1264 17.266 17.1818 17.6012 17.1818C17.9762 17.1818 18.3086 17.1165 18.5984 16.9858C18.8882 16.8551 19.1154 16.6733 19.2802 16.4403C19.445 16.2074 19.5274 15.9375 19.5274 15.6307C19.5274 15.3097 19.4478 15.027 19.2887 14.7827C19.1296 14.5355 18.8967 14.3423 18.5899 14.2031C18.283 14.0639 17.908 13.9943 17.4649 13.9943H16.766V13.0568H17.4649C17.8114 13.0568 18.1154 12.9943 18.3768 12.8693C18.641 12.7443 18.847 12.5682 18.9947 12.3409C19.1453 12.1136 19.2205 11.8466 19.2205 11.5398C19.2205 11.2443 19.1552 10.9872 19.0245 10.7685C18.8938 10.5497 18.7092 10.3793 18.4705 10.2571C18.2347 10.1349 17.9563 10.0739 17.6353 10.0739C17.3342 10.0739 17.0501 10.1293 16.783 10.2401C16.5188 10.348 16.3029 10.5057 16.1353 10.7131C15.9677 10.9176 15.8768 11.1648 15.8626 11.4545H14.8399C14.8569 10.9972 14.9947 10.5966 15.2532 10.2528C15.5117 9.90625 15.8498 9.63636 16.2674 9.44318C16.6879 9.25 17.1495 9.15341 17.6524 9.15341C18.1921 9.15341 18.6552 9.26278 19.0416 9.48153C19.4279 9.69744 19.7248 9.98295 19.9322 10.3381C20.1396 10.6932 20.2433 11.0767 20.2433 11.4886C20.2433 11.9801 20.114 12.3991 19.8555 12.7457C19.5998 13.0923 19.2518 13.3324 18.8114 13.4659V13.5341C19.3626 13.625 19.793 13.8594 20.1026 14.2372C20.4123 14.6122 20.5671 15.0767 20.5671 15.6307C20.5671 16.1051 20.4379 16.5312 20.1793 16.9091C19.9237 17.2841 19.5742 17.5795 19.131 17.7955C18.6879 18.0114 18.1836 18.1193 17.6183 18.1193Z" fill="white"/>
</g>
<defs>
<filter id="filter0_d_2_211" x="3" y="3" width="28" height="28" filterUnits="userSpaceOnUse" color-interpolation-filters="sRGB">
<feFlood flood-opacity="0" result="BackgroundImageFix"/>
<feColorMatrix in="SourceAlpha" type="matrix" values="0 0 0 0 0 0 0 0 0 0 0 0 0 0 0 0 0 0 127 0" result="hardAlpha"/>
<feOffset dy="3"/>
<feGaussianBlur stdDeviation="3"/>
<feColorMatrix type="matrix" values="0 0 0 0 0 0 0 0 0 0 0 0 0 0 0 0 0 0 0.161 0"/>
<feBlend mode="normal" in2="BackgroundImageFix" result="effect1_dropShadow_2_211"/>
<feBlend mode="normal" in="SourceGraphic" in2="effect1_dropShadow_2_211" result="shape"/>
</filter>
</defs>
</svg>
