<svg width="16" height="16" viewBox="0 0 16 16" fill="none" xmlns="http://www.w3.org/2000/svg">
<mask id="mask0_2_155" style="mask-type:luminance" maskUnits="userSpaceOnUse" x="0" y="0" width="16" height="16">
<path d="M15.258 0H0V15.258H15.258V0Z" fill="white"/>
</mask>
<g mask="url(#mask0_2_155)">
<path fill-rule="evenodd" clip-rule="evenodd" d="M7.20399 9.07903C7.55375 9.07969 7.90021 9.01128 8.22347 8.87774C8.54674 8.74419 8.84046 8.54814 9.08778 8.30081C9.3351 8.05349 9.53115 7.75978 9.6647 7.43651C9.79824 7.11324 9.86665 6.76679 9.86599 6.41703C9.87098 5.70064 9.59509 5.01081 9.09747 4.49543C8.59985 3.98005 7.92011 3.68015 7.20399 3.66003C6.85431 3.6595 6.50796 3.728 6.18481 3.86161C5.86166 3.99521 5.56806 4.19129 5.32085 4.43859C5.07363 4.6859 4.87767 4.97958 4.74418 5.30278C4.6107 5.62598 4.54233 5.97235 4.54299 6.32203C4.55447 7.03327 4.83564 7.71361 5.32964 8.22544C5.82364 8.73726 6.4936 9.04236 7.20399 9.07903ZM2.73599 1.85003C3.92487 0.683859 5.52604 0.0341582 7.19137 0.0421878C8.8567 0.0502174 10.4515 0.715328 11.6291 1.89291C12.8067 3.07049 13.4718 4.66532 13.4798 6.33065C13.4879 7.99598 12.8382 9.59715 11.672 10.786L7.20399 15.258L2.73599 10.79C1.59035 9.58375 0.951599 7.98364 0.951599 6.32003C0.951599 4.65642 1.59035 3.05631 2.73599 1.85003Z" fill="#8E8E8E"/>
</g>
</svg>
