<svg width="16" height="16" viewBox="0 0 16 16" fill="none" xmlns="http://www.w3.org/2000/svg">
<mask id="mask0_2_206" style="mask-type:luminance" maskUnits="userSpaceOnUse" x="0" y="0" width="16" height="16">
<path d="M16 0H0V16H16V0Z" fill="white"/>
</mask>
<g mask="url(#mask0_2_206)">
<path d="M2.39999 2.40002C3.10393 1.6183 3.96927 0.998828 4.93617 0.584442C5.90307 0.170057 6.94845 -0.0293468 7.99999 2.40959e-05C9.05154 -0.0293468 10.0969 0.170057 11.0638 0.584442C12.0307 0.998828 12.8961 1.6183 13.6 2.40002C14.3817 3.10396 15.0012 3.9693 15.4156 4.9362C15.83 5.9031 16.0294 6.94848 16 8.00002C16.0294 9.05157 15.83 10.0969 15.4156 11.0638C15.0012 12.0307 14.3817 12.8961 13.6 13.6C12.8961 14.3817 12.0307 15.0012 11.0638 15.4156C10.0969 15.83 9.05154 16.0294 7.99999 16C6.94845 16.0294 5.90307 15.83 4.93617 15.4156C3.96927 15.0012 3.10393 14.3817 2.39999 13.6C0.891214 12.124 0.0283128 10.1105 -6.4217e-06 8.00002C-0.0293773 6.94848 0.170026 5.9031 0.584412 4.9362C0.998797 3.9693 1.61827 3.10396 2.39999 2.40002ZM9.06699 14.4C9.8583 14.2589 10.5701 13.8318 11.067 13.2C11.6132 12.3623 11.9346 11.398 12 10.4C12.0025 10.1021 11.9447 9.8068 11.8301 9.53183C11.7154 9.25686 11.5464 9.00793 11.333 8.80002C11.1163 8.55272 10.85 8.35371 10.5515 8.21589C10.2529 8.07808 9.92878 8.00453 9.59999 8.00002H8.26699C7.85538 7.97514 7.45033 7.88502 7.06699 7.73302C6.93672 7.61576 6.83349 7.47159 6.76442 7.3105C6.69536 7.14941 6.66211 6.97523 6.66699 6.80002C6.66903 6.69691 6.69406 6.59556 6.74025 6.50335C6.78644 6.41114 6.85263 6.3304 6.93399 6.26702C7.08079 6.12648 7.26653 6.03343 7.46699 6.00002C7.60082 6.01327 7.73005 6.05601 7.84538 6.12518C7.96071 6.19434 8.05928 6.28821 8.13399 6.40002C8.40099 6.53302 8.53399 6.66702 8.66699 6.66702C8.85491 6.6867 9.04373 6.63923 9.19999 6.53302C9.30585 6.37663 9.35296 6.18782 9.33299 6.00002C9.27917 5.48965 9.0422 5.01608 8.66599 4.66702C9.08852 3.88851 9.3173 3.01967 9.33299 2.13402C9.32831 2.06475 9.29868 1.99953 9.24959 1.95043C9.20049 1.90134 9.13527 1.8717 9.06599 1.86702C8.72417 1.73084 8.36565 1.64105 7.99999 1.60002C6.76795 1.62857 5.5679 1.9979 4.53299 2.66702C4.14475 2.99225 3.83512 3.40111 3.6273 3.86298C3.41949 4.32485 3.31887 4.82775 3.33299 5.33402C3.32561 5.80712 3.41664 6.2766 3.60032 6.71265C3.78401 7.14869 4.05632 7.5418 4.39999 7.86702C5.07278 8.53941 5.98187 8.922 6.93299 8.93302V9.46602C6.92002 9.71379 6.96106 9.96142 7.05326 10.1918C7.14547 10.4221 7.28664 10.6296 7.46699 10.8C7.74947 11.2108 8.17913 11.4973 8.66699 11.6V14C8.66699 14.133 8.66699 14.133 8.79999 14.267C8.93299 14.401 8.93299 14.4 9.06699 14.4Z" fill="#8E8E8E"/>
</g>
</svg>
