<svg width="16" height="16" viewBox="0 0 16 16" fill="none" xmlns="http://www.w3.org/2000/svg">
<mask id="mask0_2_194" style="mask-type:luminance" maskUnits="userSpaceOnUse" x="0" y="0" width="16" height="16">
<path d="M16 0H0V16H16V0Z" fill="white"/>
</mask>
<g mask="url(#mask0_2_194)">
<path d="M9.28601 11.429L11 9.857C11.0563 9.8027 11.1241 9.76168 11.1983 9.73694C11.2726 9.7122 11.3514 9.70436 11.429 9.714L11.715 9.857L15.715 11.714C16.001 11.857 16.001 12 16.001 12.285C15.9916 12.7681 15.8857 13.2445 15.6894 13.686C15.4931 14.1276 15.2104 14.5254 14.858 14.856C14.4608 15.2389 13.9903 15.5376 13.4748 15.734C12.9592 15.9304 12.4093 16.0206 11.858 15.999C10.4638 15.991 9.09196 15.648 7.85801 14.999C6.40494 14.2266 5.06003 13.2659 3.85801 12.142C3.06245 11.1522 2.3456 10.1017 1.71401 9C1.14717 7.99603 0.669348 6.94434 0.286013 5.857C0.0499851 4.97274 -0.0465107 4.05704 1.30255e-05 3.143C0.0937682 2.33959 0.444511 1.58794 1.00001 1C1.76389 0.366433 2.72168 0.0135273 3.71401 0C3.82448 0.00215225 3.93307 0.0289466 4.03186 0.0784268C4.13064 0.127907 4.21713 0.198824 4.28501 0.286L6.42801 4.286C6.44309 4.39442 6.49333 4.49489 6.57101 4.572C6.58063 4.64941 6.57287 4.72799 6.54831 4.80202C6.52374 4.87606 6.48299 4.94369 6.42901 5L4.57101 6.714C4.49982 6.81945 4.46178 6.94377 4.46178 7.071C4.46178 7.19823 4.49982 7.32255 4.57101 7.428C5.06107 8.24794 5.63589 9.01414 6.28601 9.714C6.98266 10.4094 7.74865 11.0316 8.57201 11.571C8.85701 11.714 9.14301 11.714 9.28601 11.429Z" fill="#8B8B8B"/>
</g>
</svg>
