<svg width="22" height="16" viewBox="0 0 22 16" fill="none" xmlns="http://www.w3.org/2000/svg">
<mask id="mask0_2_166" style="mask-type:luminance" maskUnits="userSpaceOnUse" x="0" y="0" width="22" height="16">
<path d="M22 0H0V16H22V0Z" fill="white"/>
</mask>
<g mask="url(#mask0_2_166)">
<path d="M19 4H16V0H2C1.47005 0.00158273 0.962265 0.212805 0.587535 0.587535C0.212805 0.962265 0.00158273 1.47005 0 2V13H2C2 13.7956 2.31607 14.5587 2.87868 15.1213C3.44129 15.6839 4.20435 16 5 16C5.79565 16 6.55871 15.6839 7.12132 15.1213C7.68393 14.5587 8 13.7956 8 13H14C14 13.7956 14.3161 14.5587 14.8787 15.1213C15.4413 15.6839 16.2044 16 17 16C17.7956 16 18.5587 15.6839 19.1213 15.1213C19.6839 14.5587 20 13.7956 20 13H22V8L19 4ZM5 14.5C4.70333 14.5 4.41332 14.412 4.16664 14.2472C3.91997 14.0824 3.72771 13.8481 3.61418 13.574C3.50065 13.2999 3.47094 12.9983 3.52882 12.7074C3.5867 12.4164 3.72956 12.1491 3.93934 11.9393C4.14912 11.7296 4.41639 11.5867 4.70736 11.5288C4.99834 11.4709 5.29994 11.5006 5.57403 11.6142C5.84811 11.7277 6.08238 11.92 6.2472 12.1666C6.41203 12.4133 6.5 12.7033 6.5 13C6.5 13.3978 6.34196 13.7794 6.06066 14.0607C5.77936 14.342 5.39782 14.5 5 14.5ZM18.5 5.5L20.46 8H16V5.5H18.5ZM17 14.5C16.7033 14.5 16.4133 14.412 16.1666 14.2472C15.92 14.0824 15.7277 13.8481 15.6142 13.574C15.5007 13.2999 15.4709 12.9983 15.5288 12.7074C15.5867 12.4164 15.7296 12.1491 15.9393 11.9393C16.1491 11.7296 16.4164 11.5867 16.7074 11.5288C16.9983 11.4709 17.2999 11.5006 17.574 11.6142C17.8481 11.7277 18.0824 11.92 18.2472 12.1666C18.412 12.4133 18.5 12.7033 18.5 13C18.5 13.3978 18.342 13.7794 18.0607 14.0607C17.7794 14.342 17.3978 14.5 17 14.5Z" fill="#8B8B8B"/>
</g>
</svg>
