<svg width="16" height="16" viewBox="0 0 16 16" fill="none" xmlns="http://www.w3.org/2000/svg">
<mask id="mask0_2_177" style="mask-type:luminance" maskUnits="userSpaceOnUse" x="0" y="0" width="16" height="16">
<path d="M16 0H0V16H16V0Z" fill="white"/>
</mask>
<g mask="url(#mask0_2_177)">
<path d="M15.675 5.77395L14.275 7.17395C14.2485 7.17395 14.223 7.18449 14.2043 7.20324C14.1855 7.222 14.175 7.24743 14.175 7.27395H14.075C13.975 7.27395 13.875 7.27395 13.875 7.17395C13.0995 6.36844 12.1668 5.73088 11.1346 5.30083C10.1025 4.87077 8.99302 4.6574 7.87501 4.67395C6.75568 4.64789 5.64334 4.85693 4.60984 5.28755C3.57634 5.71818 2.64467 6.36082 1.87501 7.17395C1.87501 7.27395 1.77501 7.27395 1.67501 7.27395H1.57501C1.54848 7.27395 1.52305 7.26342 1.5043 7.24466C1.48554 7.22591 1.47501 7.20047 1.47501 7.17395L0.0750067 5.77395C0.0250514 5.70015 -0.00164795 5.61307 -0.00164795 5.52395C-0.00164795 5.43483 0.0250514 5.34776 0.0750067 5.27395C1.10227 4.23665 2.32493 3.41323 3.67232 2.85128C5.01972 2.28934 6.46512 2 7.92501 2C9.38489 2 10.8303 2.28934 12.1777 2.85128C13.5251 3.41323 14.7477 4.23665 15.775 5.27395C15.8012 5.44719 15.7658 5.62411 15.675 5.77395ZM12.575 8.87395L11.175 10.274C11.1619 10.274 11.1489 10.2765 11.1367 10.2816C11.1246 10.2866 11.1136 10.294 11.1043 10.3032C11.095 10.3125 11.0876 10.3236 11.0826 10.3357C11.0776 10.3478 11.075 10.3608 11.075 10.374H10.975C10.875 10.374 10.775 10.374 10.775 10.274C10.3975 9.88875 9.94598 9.58387 9.44761 9.37765C8.94925 9.17143 8.41432 9.06813 7.87501 9.07395C7.33569 9.06813 6.80077 9.17143 6.3024 9.37765C5.80403 9.58387 5.35252 9.88875 4.97501 10.274C4.9231 10.331 4.85179 10.3667 4.77501 10.374H4.67501C4.64849 10.374 4.62305 10.3634 4.6043 10.3447C4.58554 10.3259 4.57501 10.3005 4.57501 10.274L3.17501 8.87395C2.97501 8.67395 2.97501 8.57395 3.17501 8.37395C3.79682 7.73141 4.54328 7.2226 5.36865 6.87869C6.19402 6.53479 7.08092 6.36304 7.97501 6.37395C8.86909 6.36304 9.75599 6.53479 10.5814 6.87869C11.4067 7.2226 12.1532 7.73141 12.775 8.37395C12.7872 8.46744 12.7753 8.56251 12.7403 8.65005C12.7052 8.73759 12.6483 8.81469 12.575 8.87395ZM9.57501 11.874L8.07501 13.374C7.87501 13.574 7.77501 13.574 7.57501 13.374L6.07501 11.874C6.02606 11.7998 5.99997 11.7128 5.99997 11.624C5.99997 11.5351 6.02606 11.4481 6.07501 11.374C6.31055 11.1395 6.59205 10.9562 6.90182 10.8358C7.21159 10.7153 7.54292 10.6602 7.87501 10.674C8.20709 10.6602 8.53843 10.7153 8.84819 10.8358C9.15796 10.9562 9.43946 11.1395 9.67501 11.374C9.70118 11.5472 9.66579 11.7241 9.57501 11.874Z" fill="#8B8B8B"/>
</g>
</svg>
