<svg width="32" height="33" viewBox="0 0 32 33" fill="none" xmlns="http://www.w3.org/2000/svg">
<path d="M28.1611 5.87802C27.9833 5.35873 27.6471 4.90827 27.1999 4.59004C26.7527 4.27181 26.2169 4.10183 25.6681 4.10402H21.2781V0.593018H10.7421V4.10502H6.35205C5.80373 4.10508 5.26902 4.2758 4.82211 4.59351C4.37521 4.91122 4.03827 5.36015 3.85805 5.87802L0.206055 16.393V30.444C0.207374 30.9093 0.392804 31.3552 0.721833 31.6842C1.05086 32.0133 1.49674 32.1987 1.96205 32.2H3.71805C4.18337 32.1987 4.62925 32.0133 4.95828 31.6842C5.2873 31.3552 5.47273 30.9093 5.47405 30.444V28.693H26.5451V30.449C26.5477 30.9143 26.7344 31.3597 27.0644 31.6878C27.3943 32.0159 27.8407 32.2 28.3061 32.2H30.0621C30.5274 32.1987 30.9732 32.0133 31.3023 31.6842C31.6313 31.3552 31.8167 30.9093 31.8181 30.444V16.393L28.1611 5.87802ZM6.35205 23.42C5.8311 23.42 5.32184 23.2655 4.88868 22.9761C4.45552 22.6867 4.11792 22.2753 3.91856 21.794C3.71919 21.3127 3.66703 20.7831 3.76867 20.2722C3.8703 19.7612 4.12116 19.2919 4.48954 18.9235C4.85791 18.5551 5.32724 18.3043 5.83819 18.2026C6.34913 18.101 6.87874 18.1532 7.36004 18.3525C7.84134 18.5519 8.25272 18.8895 8.54215 19.3226C8.83157 19.7558 8.98605 20.2651 8.98605 20.786C8.98658 21.1321 8.91881 21.4748 8.78663 21.7946C8.65444 22.1144 8.46044 22.405 8.21575 22.6497C7.97105 22.8944 7.68047 23.0884 7.36067 23.2206C7.04086 23.3528 6.6981 23.4205 6.35205 23.42ZM25.6671 23.42C25.1463 23.419 24.6375 23.2637 24.205 22.9737C23.7725 22.6837 23.4357 22.2719 23.2371 21.7905C23.0385 21.3092 22.9871 20.7797 23.0893 20.2691C23.1915 19.7585 23.4427 19.2896 23.8113 18.9217C24.1799 18.5539 24.6492 18.3035 25.16 18.2023C25.6708 18.101 26.2002 18.1535 26.6812 18.353C27.1622 18.5525 27.5733 18.8901 27.8625 19.3232C28.1517 19.7562 28.3061 20.2653 28.3061 20.786C28.3066 21.1325 28.2386 21.4757 28.1062 21.7958C27.9737 22.1159 27.7792 22.4067 27.534 22.6515C27.2888 22.8962 26.9976 23.0901 26.6772 23.222C26.3568 23.3539 26.0135 23.4212 25.6671 23.42ZM3.71805 14.641L6.35205 6.74102H25.6671L28.3011 14.641H3.71805Z" fill="white"/>
</svg>
